<?xml version="1.0" encoding="UTF-8" standalone="no"?>
<!DOCTYPE svg PUBLIC "-//W3C//DTD SVG 1.1//EN" "http://www.w3.org/Graphics/SVG/1.1/DTD/svg11.dtd">
<!-- Created with Vectornator (http://vectornator.io/) -->
<svg height="100%" stroke-miterlimit="10" style="fill-rule:nonzero;clip-rule:evenodd;stroke-linecap:round;stroke-linejoin:round;" version="1.1" viewBox="0 0 1024 1024" width="100%" xml:space="preserve" xmlns="http://www.w3.org/2000/svg" xmlns:vectornator="http://vectornator.io" xmlns:xlink="http://www.w3.org/1999/xlink">
<defs/>
<g id="Layer-1" vectornator:layerName="Layer 1">
<path d="M566.94 362.7C559.513 368.271 554.967 375.84 548.281 382.526C533.768 397.039 517.432 410.308 501.632 423.344C423.47 487.827 349.373 556.944 277.718 628.598C252.622 653.694 227.756 678.904 203.08 704.402C198.493 709.143 193.63 713.614 189.086 718.397C184.349 723.383 180.688 729.56 175.091 733.558C174.458 734.009 172.759 734.335 172.759 733.558C172.759 731.819 174.314 730.448 175.091 728.893" fill="none" opacity="1" stroke="#9696df" stroke-linecap="round" stroke-linejoin="round" stroke-width="30.373"/>
<path d="M172.835 724.073C182.416 714.403 187.487 694.306 191.347 681.619C201.437 648.454 209.101 614.088 217.155 580.391C225.817 544.154 234.109 507.852 242.102 471.464C247.28 447.89 252.147 423.843 259.109 400.679C271.931 358.01 286.91 316.308 298.139 273.116C302.33 256.994 307.645 241.254 311.949 225.18C315.087 213.461 315.106 201.264 318.25 189.522C319.09 186.385 320.531 183.429 321.372 180.291C322.978 174.291 321.446 166.949 326.24 162.111" fill="none" opacity="1" stroke="#2f2667" stroke-linecap="round" stroke-linejoin="round" stroke-width="30.373"/>
<path d="M328.161 161.001C326.245 163.904 327.757 165.874 329.022 168.701C331.362 173.933 333.583 179.218 335.835 184.489C337.709 188.874 339.559 193.27 341.398 197.669C360.91 244.343 381.687 290.434 400.781 337.297C417.523 378.386 433.625 419.705 449.087 461.293C462.751 498.044 475.665 535.444 491.002 571.563C498.982 590.355 508.446 608.487 516.707 627.157C523.333 642.132 528.343 657.777 534.663 672.883C539.304 683.974 544.6 694.784 549.946 705.552C554.657 715.042 560.999 724.56 563.15 735.067" fill="none" opacity="1" stroke="#2f2667" stroke-linecap="round" stroke-linejoin="round" stroke-width="30.373"/>
<path d="M57.4578 483.683C72.7943 486.224 87.9254 492.996 102.693 497.867C132.965 507.851 161.483 521.768 190.754 534.348C223.428 548.39 257.191 559.703 289.644 574.295C326.062 590.67 359.951 612.234 395.207 630.855C432.677 650.646 472.498 665.047 509.152 686.371C519.975 692.667 530.627 698.964 540.438 706.757C544.991 710.374 549.962 717.049 549.838 713.331" fill="none" opacity="1" stroke="#2f2667" stroke-linecap="round" stroke-linejoin="round" stroke-width="30.373"/>
<path d="M63.0712 479.276C66.6489 478.678 69.8072 479.565 73.5447 479.141C83.9477 477.961 95.6628 475.824 105.618 472.976C120.85 468.618 135.616 462.754 150.78 458.165C170.759 452.119 192.602 447.192 212.699 442.17C287.736 423.417 363.701 408.763 439.697 394.561C473.453 388.253 506.966 381.832 540.498 374.493C544.655 373.583 548.771 372.491 552.934 371.608C555.075 371.154 558.192 370.359 559.48 372.129" fill="none" opacity="1" stroke="#2f2667" stroke-linecap="round" stroke-linejoin="round" stroke-width="30.373"/>
<g opacity="1">
<path d="M909.812 276.375C900.914 276.744 894.006 284.257 894.375 293.156C898.231 385.591 902.081 478.034 905.938 570.469C907.14 599.3 908.345 628.139 909.562 656.969C909.059 656.274 908.566 655.57 908.062 654.875C886.979 625.759 865.904 596.641 844.812 567.531C791.046 493.326 737.266 419.111 683.5 344.906C671.296 328.063 659.079 311.218 646.875 294.375C645.851 292.962 644.836 291.569 643.812 290.156C641.765 287.33 639.137 283.1 636.188 281.125C635.497 280.663 634.822 280.179 634.062 279.844C632.922 279.34 631.762 278.826 630.531 278.625C628.758 278.335 626.897 278.077 625.125 278.375C623.021 278.729 620.942 279.464 619.094 280.531C617.472 281.467 616.129 282.863 614.906 284.281C614.043 285.283 613.475 286.525 612.906 287.719C612.527 288.513 612.321 289.368 612.094 290.219C611.327 293.095 611.75 296.749 611.875 299.688C611.916 300.641 611.959 301.578 612 302.531C612.061 303.961 612.126 305.383 612.188 306.812C613.266 332.071 614.312 357.335 615.375 382.594C620.105 495.015 624.812 607.451 629.5 719.875C629.85 728.3 636.981 734.85 645.406 734.5C653.832 734.15 660.381 727.019 660.031 718.594C655.915 619.254 651.798 519.935 647.719 420.594C646.67 395.059 645.609 369.504 644.562 343.969C656.572 360.622 668.584 377.253 680.594 393.906C738.93 474.797 797.253 555.706 855.594 636.594C872.798 660.447 890.009 684.307 907.219 708.156C908.305 709.661 909.383 711.151 910.469 712.656C912.803 715.891 915.586 720.435 919.094 722.469C920 722.994 920.91 723.519 921.906 723.844C923.384 724.326 924.914 724.808 926.469 724.844C928.541 724.891 930.66 724.752 932.625 724.094C934.643 723.418 936.523 722.264 938.188 720.938C939.481 719.906 940.451 718.497 941.375 717.125C942.003 716.193 942.376 715.142 942.781 714.094C943.054 713.388 943.213 712.614 943.375 711.875C943.983 709.107 943.581 704.985 943.469 702.219C943.447 701.69 943.428 701.154 943.406 700.625C943.342 699.049 943.283 697.482 943.219 695.906C943.135 693.846 943.052 691.779 942.969 689.719C941.898 663.365 940.835 637.009 939.75 610.656C935.373 504.38 930.971 398.089 926.594 291.812C926.225 282.914 918.711 276.006 909.812 276.375Z" fill="#2f2667" stroke="none"/>
</g>
</g>
</svg>
